<svg xmlns="http://www.w3.org/2000/svg" xml:space="preserve" width="420" height="450" viewBox="-2002 0 4004 2004" id="Emblem_of_the_League_of_Arab_States" version="1.0">
  <defs id="defs1709">
    <style type="text/css" id="style1711">
      .str2{stroke:#000;stroke-width:3}.fil2{fill:#fff}.fil0{fill:#006d58}
    </style>
  </defs>
  <g id="g13474" transform="matrix(2.92013 0 0 2.84785 -3e-8 -10835.955)">
    <path id="path13472" d="M-368.68142 3681.5347 2.3759218 3490.4513 360.10186 3679.3128l219.96813 206.6367 44.438 231.0776-41.72323 177.4363-60.43793 181.7683-222.23628 227.3771 31.10661 57.7694-97.76361 128.8702-182.195823-42.2161-48.8818052-31.1066-233.2995218 77.7665-15.55331-24.4409-95.54171-117.7607-11.1095-84.4322-171.08632-197.7491-64.4351-168.8644-35.55041-188.8616 46.65991-213.3024 82.21031-102.2074 126.64831-115.5388z" style="fill:#fff;fill-rule:evenodd;stroke:none;stroke-width:1px;stroke-linecap:butt;stroke-linejoin:miter;stroke-opacity:1"/>
    <g transform="translate(0 3154.8104)" id="g10679">
      <path style="opacity:1;fill:none;fill-opacity:1;fill-rule:evenodd;stroke:#000;stroke-width:6.47934055;stroke-linecap:round;stroke-linejoin:round;marker:none;marker-start:none;marker-mid:none;marker-end:none;stroke-miterlimit:4;stroke-dasharray:none;stroke-dashoffset:0;stroke-opacity:1;visibility:visible;display:inline;overflow:visible;enable-background:accumulate" id="path10681" d="M-753.38785 1006.3383c0 257.7087-210.321 466.6229-469.76515 466.6229-259.4441 0-469.7651-208.9142-469.7651-466.6229 0-257.70867 210.321-466.62285 469.7651-466.62285 259.44415 0 469.76515 208.91418 469.76515 466.62285z" transform="matrix(.98714 0 0 .99379 1208.1716 7.8246444)"/>
      <path id="path10683" d="M-40.498001 1471.1963c.034679-9.3718 7.607293-16.8885 16.978953-16.8538l45.234761.1674c9.371661.0347 16.888437 7.6072 16.853757 16.979-.034679 9.3716-7.607292 16.8883-16.978953 16.8537l-45.234761-.1674c-9.37166-.0347-16.888436-7.6073-16.853757-16.9789z" style="fill:#e8111c;fill-opacity:1;fill-rule:evenodd;stroke:#000;stroke-width:6.01200008;stroke-linecap:round;stroke-linejoin:round;marker:none;marker-start:none;marker-mid:none;marker-end:none;stroke-miterlimit:4;stroke-dashoffset:0;stroke-opacity:1;visibility:visible;display:inline;overflow:visible;enable-background:accumulate"/>
      <g style="fill:#188400;fill-opacity:1;stroke:#000;stroke-width:8.01200199;stroke-miterlimit:4;stroke-dasharray:none;stroke-opacity:1" transform="matrix(1.0005 0 0 1.0005 0 4.791172)" id="g10685">
        <path id="path10687" class="fil2 str2" d="M-29 384c-13-74-122-79-139-91-20-13-17 0-10 20 20 52 88 73 119 79 25 4 33 6 30-8z" style="fill:#188400;fill-opacity:1;stroke:#000;stroke-width:8.01200199;stroke-miterlimit:4;stroke-dasharray:none;stroke-opacity:1"/>
        <path id="path10689" class="fil2 str2" d="M4 386c11-76-97-112-110-129-15-18-17-7-10 14 13 45 60 98 88 112 23 12 30 17 32 3z" style="fill:#188400;fill-opacity:1;stroke:#000;stroke-width:8.01200199;stroke-miterlimit:4;stroke-dasharray:none;stroke-opacity:1"/>
        <path id="path10691" class="fil2 str2" d="M93 430c10-91-78-105-101-134-15-18-16-8-11 13 10 46 54 100 81 117 21 13 30 18 31 4z" style="fill:#188400;fill-opacity:1;stroke:#000;stroke-width:8.01200199;stroke-miterlimit:4;stroke-dasharray:none;stroke-opacity:1"/>
        <path id="path10693" class="fil2 str2" d="M66 410c-91-59-155-26-181-29-25-3-33 13 10 37 53 29 127 25 156 14 30-12 21-18 15-22z" style="fill:#188400;fill-opacity:1;stroke:#000;stroke-width:8.01200199;stroke-miterlimit:4;stroke-dasharray:none;stroke-opacity:1"/>
        <path id="path10695" class="fil2 str2" d="M203 450c-28-98-93-82-112-94s-21-9-17 13c8 39 75 82 108 95 12 4 27 10 21-14z" style="fill:#188400;fill-opacity:1;stroke:#000;stroke-width:8.01200199;stroke-miterlimit:4;stroke-dasharray:none;stroke-opacity:1"/>
        <path id="path10697" class="fil2 str2" d="M190 467c-78-63-139-16-163-23-18-5-10 7-3 12 50 35 112 54 160 32 19-8 20-10 6-21z" style="fill:#188400;fill-opacity:1;stroke:#000;stroke-width:8.01200199;stroke-miterlimit:4;stroke-dasharray:none;stroke-opacity:1"/>
        <path id="path10699" class="fil2 str2" d="M359 531c1-62-127-88-154-126-16-23-30-11-22 26 12 48 100 101 148 111 29 6 28-4 28-11z" style="fill:#188400;fill-opacity:1;stroke:#000;stroke-width:8.01200199;stroke-miterlimit:4;stroke-dasharray:none;stroke-opacity:1"/>
        <path id="path10701" class="fil2 str2" d="M355 542c-81-73-149-49-174-56-25-6-35 9 4 39 48 36 122 43 153 36s23-14 17-19z" style="fill:#188400;fill-opacity:1;stroke:#000;stroke-width:8.01200199;stroke-miterlimit:4;stroke-dasharray:none;stroke-opacity:1"/>
        <path id="path10703" class="fil2 str2" d="M500 649c-23-106-96-128-114-148-17-20-35-14-20 34 18 57 77 107 108 119 30 13 28 3 26-5z" style="fill:#188400;fill-opacity:1;stroke:#000;stroke-width:8.01200199;stroke-miterlimit:4;stroke-dasharray:none;stroke-opacity:1"/>
        <path id="path10705" class="fil2 str2" d="M499 663c-59-95-136-92-160-105-23-14-39-2-8 39 36 50 110 78 144 80s28-7 24-14z" style="fill:#188400;fill-opacity:1;stroke:#000;stroke-width:8.01200199;stroke-miterlimit:4;stroke-dasharray:none;stroke-opacity:1"/>
        <path id="path10707" class="fil2 str2" d="M575 776c34-108-44-148-52-166-9-18-18-18-23 1-22 77 49 152 60 167 11 14 13 7 15-2z" style="fill:#188400;fill-opacity:1;stroke:#000;stroke-width:8.01200199;stroke-miterlimit:4;stroke-dasharray:none;stroke-opacity:1"/>
        <path id="path10709" class="fil2 str2" d="M559 806c-27-121-98-114-114-131-17-17-19-5-16 17 8 59 79 99 111 119 10 6 22 13 19-5z" style="fill:#188400;fill-opacity:1;stroke:#000;stroke-width:8.01200199;stroke-miterlimit:4;stroke-dasharray:none;stroke-opacity:1"/>
        <path id="path10711" class="fil2 str2" d="M627 948c49-114-9-191-27-208-18-16-29-23-23 0 8 35-20 125 23 191 14 22 16 43 27 17z" style="fill:#188400;fill-opacity:1;stroke:#000;stroke-width:8.01200199;stroke-miterlimit:4;stroke-dasharray:none;stroke-opacity:1"/>
        <path id="path10713" class="fil2 str2" d="M601 971c11-70-29-134-72-159-25-15-26-11-26 10 2 65 63 119 81 149 17 28 16 7 17 0z" style="fill:#188400;fill-opacity:1;stroke:#000;stroke-width:8.01200199;stroke-miterlimit:4;stroke-dasharray:none;stroke-opacity:1"/>
        <path id="path10715" class="fil2 str2" d="M590 1153c-36-132 39-208 62-223 22-16 36-22 26 3-15 37 1 140-56 205-18 22-25 45-32 15z" style="fill:#188400;fill-opacity:1;stroke:#000;stroke-width:8.01200199;stroke-miterlimit:4;stroke-dasharray:none;stroke-opacity:1"/>
        <path id="path10717" class="fil2 str2" d="M598 1124c30-115-35-180-55-193-19-13-31-18-22 3 12 32-1 122 49 178 16 19 22 38 28 12z" style="fill:#188400;fill-opacity:1;stroke:#000;stroke-width:8.01200199;stroke-miterlimit:4;stroke-dasharray:none;stroke-opacity:1"/>
        <path id="path10719" class="fil2 str2" d="M561 1070c-54 58-55 143-31 193 15 29 17 27 31 6 38-61 15-149 17-188 1-37-11-17-17-11z" style="fill:#188400;fill-opacity:1;stroke:#000;stroke-width:8.01200199;stroke-miterlimit:4;stroke-dasharray:none;stroke-opacity:1"/>
        <path id="path10721" class="fil2 str2" d="M650 1162c0 80-49 145-101 165-30 11-30 8-26-16 14-90 83-123 108-152 24-28 19-5 19 3z" style="fill:#188400;fill-opacity:1;stroke:#000;stroke-width:8.01200199;stroke-miterlimit:4;stroke-dasharray:none;stroke-opacity:1"/>
        <path id="path10723" class="fil2 str2" d="M464 1400c88-80 41-136 45-188 2-28-9-21-19-11-56 55-59 153-47 191 5 17 13 15 21 8z" style="fill:#188400;fill-opacity:1;stroke:#000;stroke-width:8.01200199;stroke-miterlimit:4;stroke-dasharray:none;stroke-opacity:1"/>
        <path id="path10725" class="fil2 str2" d="M582 1348c-29 88-106 142-171 145-38 2-37-1-24-27 49-94 136-105 175-129 36-22 23 2 20 11z" style="fill:#188400;fill-opacity:1;stroke:#000;stroke-width:8.01200199;stroke-miterlimit:4;stroke-dasharray:none;stroke-opacity:1"/>
        <path id="path10727" class="fil2 str2" d="M343 1513c114-57 91-152 112-176 15-17-3-15-12-9-67 39-121 101-122 167 0 25 2 28 22 18z" style="fill:#188400;fill-opacity:1;stroke:#000;stroke-width:8.01200199;stroke-miterlimit:4;stroke-dasharray:none;stroke-opacity:1"/>
        <path id="path10729" class="fil2 str2" d="M187 1619c144 23 211-86 253-96 22-5 6-14-5-15-96-11-218 34-255 84-15 20-15 24 7 27z" style="fill:#188400;fill-opacity:1;stroke:#000;stroke-width:8.01200199;stroke-miterlimit:4;stroke-dasharray:none;stroke-opacity:1"/>
        <path id="path10731" class="fil2 str2" d="M333 1448c-29 95-137 173-218 179-38 3-38-1-24-26 65-118 178-138 218-168 34-26 27 6 24 15z" style="fill:#188400;fill-opacity:1;stroke:#000;stroke-width:8.01200199;stroke-miterlimit:4;stroke-dasharray:none;stroke-opacity:1"/>
        <path id="path10733" class="fil2 str2" d="M29 384c13-74 122-79 139-91 20-13 17 0 10 20-20 52-88 73-119 79-25 4-33 6-30-8z" style="fill:#188400;fill-opacity:1;stroke:#000;stroke-width:8.01200199;stroke-miterlimit:4;stroke-dasharray:none;stroke-opacity:1"/>
        <path id="path10735" class="fil2 str2" d="M-4 386c-11-76 97-112 110-129 15-18 17-7 10 14-13 45-60 98-88 112-23 12-30 17-32 3z" style="fill:#188400;fill-opacity:1;stroke:#000;stroke-width:8.01200199;stroke-miterlimit:4;stroke-dasharray:none;stroke-opacity:1"/>
        <path id="path10737" class="fil2 str2" d="M-93 430c-10-91 78-105 101-134 15-18 16-8 11 13-10 46-54 100-81 117-21 13-30 18-31 4z" style="fill:#188400;fill-opacity:1;stroke:#000;stroke-width:8.01200199;stroke-miterlimit:4;stroke-dasharray:none;stroke-opacity:1"/>
        <path id="path10739" class="fil2 str2" d="M-66 410c91-59 155-26 181-29 25-3 33 13-10 37-53 29-127 25-156 14-30-12-21-18-15-22z" style="fill:#188400;fill-opacity:1;stroke:#000;stroke-width:8.01200199;stroke-miterlimit:4;stroke-dasharray:none;stroke-opacity:1"/>
        <path id="path10741" class="fil2 str2" d="M-203 450c28-98 93-82 112-94s21-9 17 13c-8 39-75 82-108 95-12 4-27 10-21-14z" style="fill:#188400;fill-opacity:1;stroke:#000;stroke-width:8.01200199;stroke-miterlimit:4;stroke-dasharray:none;stroke-opacity:1"/>
        <path id="path10743" class="fil2 str2" d="M-190 467c78-63 139-16 163-23 18-5 10 7 3 12-50 35-112 54-160 32-19-8-20-10-6-21z" style="fill:#188400;fill-opacity:1;stroke:#000;stroke-width:8.01200199;stroke-miterlimit:4;stroke-dasharray:none;stroke-opacity:1"/>
        <path id="path10745" class="fil2 str2" d="M-359 531c-1-62 127-88 154-126 16-23 30-11 22 26-12 48-100 101-148 111-29 6-28-4-28-11z" style="fill:#188400;fill-opacity:1;stroke:#000;stroke-width:8.01200199;stroke-miterlimit:4;stroke-dasharray:none;stroke-opacity:1"/>
        <path id="path10747" class="fil2 str2" d="M-355 542c81-73 149-49 174-56 25-6 35 9-4 39-48 36-122 43-153 36s-23-14-17-19z" style="fill:#188400;fill-opacity:1;stroke:#000;stroke-width:8.01200199;stroke-miterlimit:4;stroke-dasharray:none;stroke-opacity:1"/>
        <path id="path10749" class="fil2 str2" d="M-500 649c23-106 96-128 114-148 17-20 35-14 20 34-18 57-77 107-108 119-30 13-28 3-26-5z" style="fill:#188400;fill-opacity:1;stroke:#000;stroke-width:8.01200199;stroke-miterlimit:4;stroke-dasharray:none;stroke-opacity:1"/>
        <path id="path10751" class="fil2 str2" d="M-499 663c59-95 136-92 160-105 23-14 39-2 8 39-36 50-110 78-144 80s-28-7-24-14z" style="fill:#188400;fill-opacity:1;stroke:#000;stroke-width:8.01200199;stroke-miterlimit:4;stroke-dasharray:none;stroke-opacity:1"/>
        <path id="path10753" class="fil2 str2" d="M-575 776c-34-108 44-148 52-166 9-18 18-18 23 1 22 77-49 152-60 167-11 14-13 7-15-2z" style="fill:#188400;fill-opacity:1;stroke:#000;stroke-width:8.01200199;stroke-miterlimit:4;stroke-dasharray:none;stroke-opacity:1"/>
        <path id="path10755" class="fil2 str2" d="M-559 806c27-121 98-114 114-131 17-17 19-5 16 17-8 59-79 99-111 119-10 6-22 13-19-5z" style="fill:#188400;fill-opacity:1;stroke:#000;stroke-width:8.01200199;stroke-miterlimit:4;stroke-dasharray:none;stroke-opacity:1"/>
        <path id="path10757" class="fil2 str2" d="M-627 948c-49-114 9-191 27-208 18-16 29-23 23 0-8 35 20 125-23 191-14 22-16 43-27 17z" style="fill:#188400;fill-opacity:1;stroke:#000;stroke-width:8.01200199;stroke-miterlimit:4;stroke-dasharray:none;stroke-opacity:1"/>
        <path id="path10759" class="fil2 str2" d="M-601 971c-11-70 29-134 72-159 25-15 26-11 26 10-2 65-63 119-81 149-17 28-16 7-17 0z" style="fill:#188400;fill-opacity:1;stroke:#000;stroke-width:8.01200199;stroke-miterlimit:4;stroke-dasharray:none;stroke-opacity:1"/>
        <path id="path10761" class="fil2 str2" d="M-590 1153c36-132-39-208-62-223-22-16-36-22-26 3 15 37-1 140 56 205 18 22 24 45 32 15z" style="fill:#188400;fill-opacity:1;stroke:#000;stroke-width:8.01200199;stroke-miterlimit:4;stroke-dasharray:none;stroke-opacity:1"/>
        <path id="path10763" class="fil2 str2" d="M-598 1124c-30-115 35-180 55-193 19-13 31-18 22 3-12 32 1 122-49 178-16 19-22 38-28 12z" style="fill:#188400;fill-opacity:1;stroke:#000;stroke-width:8.01200199;stroke-miterlimit:4;stroke-dasharray:none;stroke-opacity:1"/>
        <path id="path10765" class="fil2 str2" d="M-561 1070c54 58 55 143 31 193-15 29-17 27-31 6-38-61-15-149-17-188-1-37 11-17 17-11z" style="fill:#188400;fill-opacity:1;stroke:#000;stroke-width:8.01200199;stroke-miterlimit:4;stroke-dasharray:none;stroke-opacity:1"/>
        <path id="path10767" class="fil2 str2" d="M-650 1162c0 80 49 145 101 165 30 11 30 8 26-16-14-90-83-123-108-152-24-28-19-5-19 3z" style="fill:#188400;fill-opacity:1;stroke:#000;stroke-width:8.01200199;stroke-miterlimit:4;stroke-dasharray:none;stroke-opacity:1"/>
        <path id="path10769" class="fil2 str2" d="M-464 1400c-88-80-41-136-45-188-2-28 9-21 19-11 56 55 59 153 47 191-5 17-13 15-21 8z" style="fill:#188400;fill-opacity:1;stroke:#000;stroke-width:8.01200199;stroke-miterlimit:4;stroke-dasharray:none;stroke-opacity:1"/>
        <path id="path10771" class="fil2 str2" d="M-582 1348c29 88 106 142 171 145 38 2 37-1 24-27-49-94-136-105-175-129-36-22-23 2-20 11z" style="fill:#188400;fill-opacity:1;stroke:#000;stroke-width:8.01200199;stroke-miterlimit:4;stroke-dasharray:none;stroke-opacity:1"/>
        <path id="path10773" class="fil2 str2" d="M-343 1513c-114-57-91-152-112-176-15-17 3-15 12-9 67 39 121 101 122 167 0 25-2 28-22 18z" style="fill:#188400;fill-opacity:1;stroke:#000;stroke-width:8.01200199;stroke-miterlimit:4;stroke-dasharray:none;stroke-opacity:1"/>
        <path id="path10775" class="fil2 str2" d="M-187 1619c-144 23-211-86-253-96-22-5-6-14 5-15 96-11 218 34 255 84 15 20 15 24-7 27z" style="fill:#188400;fill-opacity:1;stroke:#000;stroke-width:8.01200199;stroke-miterlimit:4;stroke-dasharray:none;stroke-opacity:1"/>
        <path id="path10777" class="fil2 str2" d="M-333 1448c29 95 137 173 218 179 38 3 38-1 24-26-65-118-178-138-218-168-34-26-27 6-24 15z" style="fill:#188400;fill-opacity:1;stroke:#000;stroke-width:8.01200199;stroke-miterlimit:4;stroke-dasharray:none;stroke-opacity:1"/>
      </g>
      <g style="fill:#2d5016" transform="matrix(1.0005 0 0 1.0005 0 4.791172)" id="g10779">
        <path id="path10781" class="fil0" d="M169 476c-19-14-89-6-102-15 25 21 81 6 102 15z" style="fill:#2d5016;fill-opacity:1"/>
        <path id="path10783" class="fil0" d="M338 512c-15-27-104-45-117-69 23 46 92 40 117 69z" style="fill:#2d5016;fill-opacity:1"/>
        <path id="path10785" class="fil0" d="M325 543c-33-32-110-19-133-38 54 49 84 11 133 38z" style="fill:#2d5016;fill-opacity:1"/>
        <path id="path10787" class="fil0" d="M132 401c21 11 47 22 60 48-15-20-42-28-64-45 1 0 3-2 4-3z" style="fill:#2d5016;fill-opacity:1"/>
        <path id="path10789" class="fil0" d="M460 607c-13-30-59-63-63-74 13 39 51 48 63 74z" style="fill:#2d5016;fill-opacity:1"/>
        <path id="path10791" class="fil0" d="M472 660c-40-63-103-56-128-80 19 23 91 38 128 80z" style="fill:#2d5016;fill-opacity:1"/>
        <path id="path10793" class="fil0" d="M565 757c3-67-47-92-49-130-1 45 51 106 49 130z" style="fill:#2d5016;fill-opacity:1"/>
        <path id="path10795" class="fil0" d="M540 793c-10-58-78-62-90-96 0 32 80 65 90 96z" style="fill:#2d5016;fill-opacity:1"/>
        <path id="path10797" class="fil0" d="M596 760c36 44 11 111 26 160-18-36-9-126-26-160z" style="fill:#2d5016;fill-opacity:1"/>
        <path id="path10799" class="fil0" d="M537 948c54 58 32 123 54 151-27-39-23-115-54-151z" style="fill:#2d5016;fill-opacity:1"/>
        <path id="path10801" class="fil0" d="M649 956c-46 51-18 128-42 164 27-31 23-126 42-164z" style="fill:#2d5016;fill-opacity:1"/>
        <path id="path10803" class="fil0" d="M591 956c-6-59-61-90-66-122-6 32 53 82 66 122z" style="fill:#2d5016;fill-opacity:1"/>
        <path id="path10805" class="fil0" d="M563 1097c9 41-24 129-14 156-22-47 19-136 14-156z" style="fill:#2d5016;fill-opacity:1"/>
        <path id="path10807" class="fil0" d="M634 1191c-22 73-66 68-80 112 10-42 68-80 80-112z" style="fill:#2d5016;fill-opacity:1"/>
        <path id="path10809" class="fil0" d="M491 1225c-29 49-5 105-29 140 34-35 16-100 29-140z" style="fill:#2d5016;fill-opacity:1"/>
        <path id="path10811" class="fil0" d="M561 1359c-35 65-107 59-136 106 29-59 118-69 136-106z" style="fill:#2d5016;fill-opacity:1"/>
        <path id="path10813" class="fil0" d="M434 1351c-62 43-43 88-90 136 59-48 54-101 90-136z" style="fill:#2d5016;fill-opacity:1"/>
        <path id="path10815" class="fil0" d="M405 1525c-60-2-146 76-198 70 52 11 148-59 198-70z" style="fill:#2d5016;fill-opacity:1"/>
        <path id="path10817" class="fil0" d="M308 1455c-4 61-160 100-177 141 19-54 156-94 177-141z" style="fill:#2d5016;fill-opacity:1"/>
        <path id="path10819" class="fil0" d="M-45 330c-20-17-44-31-51-48 5 22 25 38 45 53 2-1 4-4 6-5z" style="fill:#2d5016;fill-opacity:1"/>
        <path id="path10821" class="fil0" d="M-79 348c-31-15-67-14-83-35 10 21 44 29 73 40 3-2 7-4 10-5z" style="fill:#2d5016;fill-opacity:1"/>
        <path id="path10823" class="fil0" d="M-169 476c19-14 89-6 102-15-25 21-81 6-102 15z" style="fill:#2d5016;fill-opacity:1"/>
        <path id="path10825" class="fil0" d="M-338 512c15-27 104-45 117-69-23 46-92 40-117 69z" style="fill:#2d5016;fill-opacity:1"/>
        <path id="path10827" class="fil0" d="M-325 543c33-32 110-19 133-38-54 49-84 11-133 38z" style="fill:#2d5016;fill-opacity:1"/>
        <path id="path10829" class="fil0" d="M-192 449c19-40 73-45 87-69-21 36-67 42-87 69z" style="fill:#2d5016;fill-opacity:1"/>
        <path id="path10831" class="fil0" d="M-38 414c55-26 109-4 135-16-32 17-108 9-135 16z" style="fill:#2d5016;fill-opacity:1"/>
        <path id="path10833" class="fil0" d="M-460 607c13-30 59-63 63-74-13 39-51 48-63 74z" style="fill:#2d5016;fill-opacity:1"/>
        <path id="path10835" class="fil0" d="M-472 660c40-63 103-56 128-80-19 23-91 38-128 80z" style="fill:#2d5016;fill-opacity:1"/>
        <path id="path10837" class="fil0" d="M-565 757c-3-67 47-92 49-130 1 45-51 106-49 130z" style="fill:#2d5016;fill-opacity:1"/>
        <path id="path10839" class="fil0" d="M-540 793c10-58 78-62 90-96 0 32-80 65-90 96z" style="fill:#2d5016;fill-opacity:1"/>
        <path id="path10841" class="fil0" d="M-596 760c-36 44-11 111-26 160 18-36 9-126 26-160z" style="fill:#2d5016;fill-opacity:1"/>
        <path id="path10843" class="fil0" d="M-537 948c-54 58-32 123-54 151 27-39 23-115 54-151z" style="fill:#2d5016;fill-opacity:1"/>
        <path id="path10845" class="fil0" d="M-649 956c46 51 18 128 42 164-27-31-23-126-42-164z" style="fill:#2d5016;fill-opacity:1"/>
        <path id="path10847" class="fil0" d="M-591 956c6-59 61-90 66-122 6 32-53 82-66 122z" style="fill:#2d5016;fill-opacity:1"/>
        <path id="path10849" class="fil0" d="M-563 1097c-9 41 24 129 14 156 22-47-19-136-14-156z" style="fill:#2d5016;fill-opacity:1"/>
        <path id="path10851" class="fil0" d="M-634 1191c22 73 66 68 80 112-10-42-68-80-80-112z" style="fill:#2d5016;fill-opacity:1"/>
        <path id="path10853" class="fil0" d="M-491 1225c29 49 5 105 29 140-34-35-16-100-29-140z" style="fill:#2d5016;fill-opacity:1"/>
        <path id="path10855" class="fil0" d="M-561 1359c35 65 107 59 136 106-29-59-118-69-136-106z" style="fill:#2d5016;fill-opacity:1"/>
        <path id="path10857" class="fil0" d="M-434 1351c62 43 43 88 90 136-59-48-54-101-90-136z" style="fill:#2d5016;fill-opacity:1"/>
        <path id="path10859" class="fil0" d="M-405 1525c60-2 146 76 198 70-52 11-148-59-198-70z" style="fill:#2d5016;fill-opacity:1"/>
        <path id="path10861" class="fil0" d="M-308 1455c4 61 160 100 177 141-19-54-156-94-177-141z" style="fill:#2d5016;fill-opacity:1"/>
        <path id="path10863" class="fil0" d="M-81 416c12-54 72-64 80-96-3 34-74 72-80 96z" style="fill:#2d5016;fill-opacity:1"/>
        <path id="path10865" class="fil0" d="M96 282c-9 41-74 64-83 95 3-42 70-66 83-95z" style="fill:#2d5016;fill-opacity:1"/>
        <path id="path10867" class="fil0" d="M45 379c31-50 95-37 117-66-16 34-95 35-117 66z" style="fill:#2d5016;fill-opacity:1"/>
      </g>
      <g style="fill:#188400;fill-opacity:1;stroke:#000;stroke-width:8.01200199;stroke-miterlimit:4;stroke-dasharray:none;stroke-opacity:1" transform="matrix(1.0005 0 0 1.0005 0 4.791172)" id="g10869">
        <path id="path10871" class="fil2 str2" d="M-54 1623c-88 44-198 32-291-28-4-2-6 1-2 12 10 29 18 52-12 95-13 19 2 22 24 20 112-11 222-36 275-57l6-42z" style="fill:#188400;fill-opacity:1;stroke:#000;stroke-width:8.01200199;stroke-miterlimit:4;stroke-dasharray:none;stroke-opacity:1"/>
        <path id="path10873" class="fil2 str2" d="M-56 1675c-35 14-95 31-162 43-27 4-26 21 22 27 49 5 112-30 150-61l-10-9z" style="fill:#188400;fill-opacity:1;stroke:#000;stroke-width:8.01200199;stroke-miterlimit:4;stroke-dasharray:none;stroke-opacity:1"/>
        <path id="path10875" class="fil2 str2" d="M0 1579c12 0 34-5 56-8 41-7 11 56-56 56v21c68 0 139-74 124-107-21-48-79-7-124-7s-103-41-124 7c-15 33 56 107 124 107v-21c-67 0-97-63-56-56 22 3 44 8 56 8z" style="fill:#188400;fill-opacity:1;stroke:#000;stroke-width:8.01200199;stroke-miterlimit:4;stroke-dasharray:none;stroke-opacity:1"/>
        <path id="path10877" class="fil2 str2" d="M54 1623c88 44 198 32 291-28 4-2 6 1 2 12-10 29-18 52 12 95 13 19-2 22-24 20-112-11-222-36-275-57l-6-42z" style="fill:#188400;fill-opacity:1;stroke:#000;stroke-width:8.01200199;stroke-miterlimit:4;stroke-dasharray:none;stroke-opacity:1"/>
        <path id="path10879" class="fil2 str2" d="M56 1675c35 14 94 31 162 43 27 4 26 21-22 27-49 5-112-30-150-61l10-9z" style="fill:#188400;fill-opacity:1;stroke:#000;stroke-width:8.01200199;stroke-miterlimit:4;stroke-dasharray:none;stroke-opacity:1"/>
        <path id="path10881" class="fil2 str2" d="M3 1665c2 17 5 54 28 38 31-21 38-37 38-67 0-19-23-47-69-47s-69 28-69 47c0 30 7 46 38 67 23 16 25-21 28-38 1-6 6-4 6 0z" style="fill:#188400;fill-opacity:1;stroke:#000;stroke-width:8.01200199;stroke-miterlimit:4;stroke-dasharray:none;stroke-opacity:1"/>
      </g>
      <path id="path10883" class="fil2" d="M0 1401c220 0 399-179 399-399 0-121-54-229-139-302 51 60 82 139 82 225 0 191-153 346-342 346s-342-155-342-346c0-86 31-165 82-225-85 73-139 181-139 302 0 220 179 399 399 399z" style="opacity:1;fill:#188400;fill-opacity:1;stroke:none;stroke-width:8.0120019899999999;stroke-linejoin:round;stroke-miterlimit:4;stroke-dasharray:none;stroke-opacity:1" transform="matrix(1.0005 0 0 1.0005 0 4.791172)"/>
      <path style="opacity:1;fill:none;fill-opacity:1;fill-rule:evenodd;stroke:#000;stroke-width:7.62077904;stroke-linecap:round;stroke-linejoin:round;marker:none;marker-start:none;marker-mid:none;marker-end:none;stroke-miterlimit:4;stroke-dasharray:none;stroke-dashoffset:0;stroke-opacity:1;visibility:visible;display:inline;overflow:visible;enable-background:accumulate" id="path10885" d="M-753.38785 1006.3383c0 257.7087-210.321 466.6229-469.76515 466.6229-259.4441 0-469.7651-208.9142-469.7651-466.6229 0-257.70867 210.321-466.62285 469.7651-466.62285 259.44415 0 469.76515 208.91418 469.76515 466.62285z" transform="matrix(1.05788 0 0 1.065 1294.7002 -63.845563)"/>
      <g transform="matrix(1.55055 0 0 1.55055 -1916.2242 -3261.8187)" id="g10887">
        <path style="fill:#000;fill-rule:evenodd;stroke:#000;stroke-width:.40079999;stroke-linecap:butt;stroke-linejoin:miter;stroke-opacity:1" d="M1071.9432 2779.7209c-25.9441 38.8596-7.2496 64.1535 19.433 66.0081 17.6249 1.2251 54.2286-24.889 54.1674-55.7318l-9.9985-5.5547c5.5399 15.7225-.2769 20.7754-12.0975 31.5168-23.5069 21.361-71.5082 22.8869-51.5044-36.2384z" id="path10889"/>
        <path style="fill:#000;fill-rule:evenodd;stroke:#000;stroke-width:1px;stroke-linecap:butt;stroke-linejoin:miter;stroke-opacity:1" d="M1277.1912 2881.6506c145.7954 4.146 192.2578-136.9231 102.2074-257.7404l-8.8876 13.3314c5.8268 56.3078 14.1601 111.781 14.9978 169.4199-17.636 20.6906-43.244 13.0822-48.3263-9.9986.3546-31.1202-9.9149-57.5186-22.7745-82.7658l-7.2212 13.3315c8.4156 20.69 17.5061 43.9305 19.4417 69.4343-41.6237 49.9865-87.6147 60.0383-70.5454-5.5548-32.9216 57.4605 16.9401 97.9925 73.3227 9.4431 12.0864 60.4794 58.921 22.9171 61.6578 9.9986 5.1218-39.6786 2.5719-103.4395-7.7767-153.8666 40.5914 70.339 42.0343 120.9949 20.4128 154.8888-24.0484 37.6981-76.2343 55.3187-126.5085 70.0786z" id="path10891"/>
        <path id="path10893" style="fill:#000;fill-rule:evenodd;stroke:#000;stroke-width:1px;stroke-linecap:butt;stroke-linejoin:miter;stroke-opacity:1" d="M1359.8617 2722.2293c-31.1799 2.3-47.1965-4.1606-30.2257-27.1986 16.7021-22.6731 32.2723-4.6167 36.4312 25.5321 3.9077 28.3279-54.7197 64.4611-75.0318 64.4643-30.7046.0048-44.9284-39.4964-16.6216-75.0183-36.4309 103.6176 78.557 43.5085 85.4479 12.2205zm-21.5881-24.0649c-3.7386-.1609-6.524 6.536-4.6302 7.8521 5.4142 3.7624 14.1989 1.4793 15.0357-.3786 1.9086-4.2376-5.0591-7.2434-10.4055-7.4735z"/>
        <path style="fill:#000;fill-rule:evenodd;stroke:#000;stroke-width:1px;stroke-linecap:butt;stroke-linejoin:miter;stroke-opacity:1" d="M1190.5371 2771.1111c-30.0256 58.9497-.1139 83.4357 38.3619 76.5485 22.4399-4.0167 50.8255-19.9847 67.1783-41.6489.2857-47.7832-.4133-95.2382-4.5391-141.5509 14.9978-17.8155-1.3508-17.739-7.0387-36.939-2.6377 11.1358-8.8932 23.2395-2.8038 32.0186 4.3061 46.6728 6.7402 93.9696 6.605 142.1228-30.1879 24.3508-52.8716 33.3534-69.1471 33.1846-33.4967-.3473-40.6357-28.5444-28.6165-63.7357z" id="path10895"/>
        <path id="path10897" d="M1251.8425 2786.7014c-.5395-44.5239-1.2483-94.9575-5.2113-126.0702 15.5351-17.3489-.8082-17.772-5.9068-37.1368-2.9767 11.05-9.5991 22.9569-3.7808 31.918 2.5932 47.6046 5.0558 95.2091 5.5924 142.8137 3.6015-2.3437 7.6912-3.2225 9.3065-11.5247z" style="opacity:1;fill:#000;fill-rule:evenodd;stroke:#000;stroke-width:1px;stroke-linecap:butt;stroke-linejoin:miter;stroke-opacity:1"/>
        <path id="path10899" style="fill:#000;fill-rule:evenodd;stroke:#000;stroke-width:.40079999;stroke-linecap:butt;stroke-linejoin:miter;stroke-opacity:1" d="M1135.3932 2784.6485c-3.7486-4.8521-6.5144-10.2178-9.622-14.9505-.4664-6.6762 4.0389-12.945 4.6147-16.2734 5.0827 7.8792 8.1209 13.8768 12.2206 17.7806m5.3447 3.1167c7.5627 2.989 16.7007 2.9782 25.2881 3.1533 32.7301.6675 67.245-4.7668 63.59 39.5798-3.2488 39.4181-35.9351 62.2538-65.2016 61.9454-41.7601-.4399-77.3477-46.4066-13.0352-131.0516 6.2461-1.0619 14.2949.6901 21.0392 1.2884 11.4813.8227 23.2289-.2839 36.7969-11.0024-1.6475-27.8852-1.6105-54.3816-5.0369-79.4895-5.8183-8.9611.8041-20.868 3.7808-31.918 5.0986 19.3648 21.4419 19.7879 5.9068 37.1368 3.6853 28.0576 4.1163 56.5499 4.1003 73.5778-7.741 11.879-13.9095 24.5067-36.6623 29.2372-23.3215-3.3918-33.8014-35.9725-58.1314-25.1379 6.7194-29.4102 68.3711-36.1333 74.6282-12.9618-4.0989 24.2645-61.741 14.4795-76.9849 92.6962-4.7066 24.1495 20.6726 46.3241 46.7518 44.5648 25.5543-1.7239 52.7426-19.447 55.371-49.2782 2.1894-24.8486-32.9889-21.985-47.6889-21.6654-21.3752.4686-34.9025-2.7954-42.9517-7.4473m21.8632-53.933c3.8264-3.5822 17.1433-6.1336 21.9413-.2777-3.6221 2.3955-7.11 4.9252-9.9985 8.0543-5.0565-2.5922-8.2759-5.1844-11.9428-7.7766z"/>
        <path style="fill:#000;fill-rule:evenodd;stroke:#000;stroke-width:1px;stroke-linecap:butt;stroke-linejoin:miter;stroke-opacity:1" d="M1194.0163 2650.909c3.5588 7.9741 5.0787 13.2418 5.2972 20.9934-2.1658 10.3493-11.0797 20.0748-20.3114 20.4122-5.6626.207-12.1392-1.4518-16.5572-10.3319-.5254-1.0561-2.9367-3.6436-5.2152-2.4484-10.128 16.5322-17.6645 23.6089-26.6865 23.4586-18.267-.3183-12.8588-16.493-29.6159-21.4471-7.0531-.2285-18.4814 6.8655-24.4604 20.8034-22.3305 63.488-42.7972-.224-34.0638-29.8373 1.3232 28.3014 8.065 45.1224 15.1088 44.54 5.1009-.4218 9.5677-12.2159 16.0559-24.6025 4.9876-9.5217 17.0766-26.6547 29.7162-26.6148 11.5848.2396 4.3574 21.5693 27.5376 21.2158 11.2147-.1711 21.5003-8.7033 31.8396-25.9292 2.3141-.4061 2.98 3.6856 3.3895 5.112 1.671 5.8207 11.8285 22.035 25.6089 7.2549-.6646-3.2311-.34-8.5233-3.8802-9.5977l6.2369-12.9814z" id="path10901"/>
        <path id="path10903" style="fill:#000;fill-rule:evenodd;stroke:#000;stroke-width:.40079999;stroke-linecap:butt;stroke-linejoin:miter;stroke-opacity:1" d="M1266.9149 2598.2889c-12.3271 6.1383-21.3396.549-26.3851-4.9299 8.8226-1.752 15.7304-4.977 17.7752-11.9427-4.0276-9.0286-13.4913-12.9232-26.9405-13.0536-17.8926.4952-27.0444 7.7114-28.1804 17.6322 8.307.3154 15.8025-1.9816 19.0151 5.9755-14.6732 7.2107-31.9694 9.831-50.826 9.7208-30.7472 1.597-35.2545-12.252-43.409-24.4843-.5598-.8397-3.2938-2.058-4.6762-1.8811-9.4727-.057-16.4706 33.1681-27.1817 33.0311-10.7054-1.4042-8.2632-21.3263-11.3872-32.7731-2.6608 17.9143 3.2497 84.4794 36.3836 12.2205 1.0221-2.3745 2.4464-1.7432 3.3329.2777 8.8766 20.2359 27.0062 27.2122 46.4284 28.2658 16.3752.8883 37.1461-6.2264 59.3896-18.8227 5.9405 6.4331 10.6131 13.8415 23.0522 15.2756 14.5349.6761 29.9818-9.8451 33.4892-22.8089 1.8041-6.668 2.1419-19.8722-4.9776-20.0917-9.9435-.3066-17.0947 23.6737-14.8212 45.2573.1754-.286 1.2555-5.3922 1.2555-5.3922m-43.795-28.7711c6.5316-3.0137 12.8063-4.3574 17.8715 2.1603-3.92 1.4025-6.286 2.3103-8.3873 4.0765-2.8612-2.182-6.644-3.3289-9.4842-6.2368zm47.8404 14.9549c1.6429-7.1771 2.4718-12.833 8.2935-16.5359 1.2529 7.4437 1.4587 11.6718-8.2935 16.5359z"/>
        <path id="path10905" style="fill:#000;fill-rule:evenodd;stroke:#000;stroke-width:.40079999;stroke-linecap:butt;stroke-linejoin:miter;stroke-opacity:1" d="M1311.3026 2606.8953c-1.8595-6.1079-3.7687-11.3475-4.4411-17.9463-1.3721-13.4647 10.148-21.0052 20.5525-19.9635 10.7099 1.0723 17.8137 5.0647 27.9942 8.5669 8.0409 2.7661 18.837 4.8086 29.0475 7.7637 5.8137 2.5585-.0002 9.3504-1.4511 10.2582-25.8416 10.161-44.0905 26.1412-60.5451 26.8626-9.7208.4261-18.4554-5.9299-26.3822-19.0793-.4361-25.3605-1.4178-55.1798-3.8883-73.8782 3.788-3.7931 4.6545-6.6125 6.388-9.7208 2.0135 24.7419 2.7833 50.7274 3.3328 76.9333 2.0921 4.481 4.7339 8.2891 9.3928 10.2034zm16.5129 2.0536c-13.8414 3.8689-12.1624-7.8035-13.4527-15.0384-1.5032-8.4283-.4301-17.8686 10.2529-15.4695 13.8828 3.6614 26.5626 8.5258 38.8852 13.7473l-35.6854 16.7606z"/>
        <path style="fill:#000;fill-rule:evenodd;stroke:#000;stroke-width:.40079999;stroke-linecap:butt;stroke-linejoin:miter;stroke-opacity:1" d="m1314.2503 2621.2657 1.963 9.3102h1.5276l-.6448-8.6302" id="path10907"/>
        <path style="fill:#000;fill-rule:evenodd;stroke:#000;stroke-width:4.0079999;stroke-linecap:round;stroke-linejoin:round;stroke-miterlimit:4;stroke-dasharray:none;stroke-opacity:1" d="m1094.1622 2718.4798 7.0823-7.2211 8.0543 6.9434-7.4989 6.6657-7.6377-6.388z" id="path10919"/>
        <path id="path10921" d="m1112.0337 2716.1231 7.0823-7.2211 8.0543 6.9434-7.4989 6.6657-7.6377-6.388z" style="fill:#000;fill-rule:evenodd;stroke:#000;stroke-width:4.0079999;stroke-linecap:round;stroke-linejoin:round;stroke-miterlimit:4;stroke-dasharray:none;stroke-opacity:1"/>
        <path style="fill:#000;fill-rule:evenodd;stroke:#000;stroke-width:4.0079999;stroke-linecap:round;stroke-linejoin:round;stroke-miterlimit:4;stroke-dasharray:none;stroke-opacity:1" d="m1062.5434 2641.4949 7.0823-7.2211 8.0543 6.9434-7.4989 6.6657-7.6377-6.388z" id="path10923"/>
        <path id="path10925" d="m1065.6856 2662.705 7.0823-7.2211 8.0543 6.9434-7.4989 6.6657-7.6377-6.388z" style="fill:#000;fill-rule:evenodd;stroke:#000;stroke-width:4.0079999;stroke-linecap:round;stroke-linejoin:round;stroke-miterlimit:4;stroke-dasharray:none;stroke-opacity:1"/>
        <path style="fill:#000;fill-rule:evenodd;stroke:#000;stroke-width:4.0079999;stroke-linecap:round;stroke-linejoin:round;stroke-opacity:1" d="m1194.2286 2698.1979 6.5025-5.3083 6.0083 6.4641-6.7953 4.8121-5.7155-5.9679z" id="path10927"/>
        <path id="path10929" d="m1108.3544 2562.4993 4.6464-4.7374 5.284 4.5553-4.9197 4.373-5.0107-4.1909z" style="fill:#000;fill-rule:evenodd;stroke:#000;stroke-width:4.0079999;stroke-linecap:round;stroke-linejoin:round;stroke-miterlimit:4;stroke-dasharray:none;stroke-opacity:1"/>
        <path style="fill:#000;fill-rule:evenodd;stroke:#000;stroke-width:4.0079999;stroke-linecap:round;stroke-linejoin:round;stroke-miterlimit:4;stroke-dasharray:none;stroke-opacity:1" d="m1120.0791 2560.9532 4.6464-4.7374 5.2841 4.5552-4.9197 4.3731-5.0108-4.1909z" id="path10931"/>
        <path id="path10933" d="m1365.6638 2614.7177-4.375 3.6811-4.1575-4.3417 4.5794-3.3462 3.9531 4.0068z" style="fill:#000;fill-rule:evenodd;stroke:#000;stroke-width:4.0079999;stroke-linecap:round;stroke-linejoin:round;stroke-opacity:1"/>
        <path style="fill:#000;fill-rule:evenodd;stroke:#000;stroke-width:.40079999;stroke-linecap:butt;stroke-linejoin:miter;stroke-opacity:1" d="m1158.7151 2747.4347-.4909 7.8556 12.618 1.2274 10.0159-7.6101-22.143-1.4729z" id="path11011"/>
        <path style="fill:#000;fill-rule:evenodd;stroke:#000;stroke-width:1px;stroke-linecap:butt;stroke-linejoin:miter;stroke-opacity:1" d="m1265.179 2599.8164 3.7495-.8332-.3819 10.2764-2.326.9025-1.0416-10.3457z" id="path11013"/>
      </g>
      <path transform="matrix(.92476 0 0 .931 1131.8776 71.017448)" d="M-753.38785 1006.3383c0 257.7087-210.321 466.6229-469.76515 466.6229-259.4441 0-469.7651-208.9142-469.7651-466.6229 0-257.70867 210.321-466.62285 469.7651-466.62285 259.44415 0 469.76515 208.91418 469.76515 466.62285z" id="path11015" style="opacity:1;fill:none;fill-opacity:1;fill-rule:evenodd;stroke:#000;stroke-width:8.6391201;stroke-linecap:round;stroke-linejoin:round;marker:none;marker-start:none;marker-mid:none;marker-end:none;stroke-miterlimit:4;stroke-dasharray:none;stroke-dashoffset:0;stroke-opacity:1;visibility:visible;display:inline;overflow:visible;enable-background:accumulate"/>
      <path style="fill:#e8111c;fill-opacity:1;fill-rule:evenodd;stroke:#000;stroke-width:6.01200008;stroke-linecap:round;stroke-linejoin:round;marker:none;marker-start:none;marker-mid:none;marker-end:none;stroke-miterlimit:4;stroke-dashoffset:0;stroke-opacity:1;visibility:visible;display:inline;overflow:visible;enable-background:accumulate" d="M-438.76794 1164.5158c8.53827-3.8638 18.52251-.1006 22.38615 8.4376l18.64945 41.2118c3.8637 8.5382.10064 18.5224-8.43765 22.3861-8.53818 3.8638-18.52227.1005-22.3861-8.4376l-18.64937-41.2118c-3.86378-8.5382-.10061-18.5224 8.43752-22.3861z" id="path11017"/>
      <path id="path11019" d="M-465.1532 1034.8581c9.28091-1.3024 17.80088 5.1207 19.10313 14.4015l6.28615 44.7962c1.30231 9.2808-5.12066 17.8008-14.40156 19.1031-9.28078 1.3023-17.8006-5.1208-19.10306-14.4016l-6.28606-44.7961c-1.30239-9.2809 5.12069-17.8008 14.4014-19.1031z" style="fill:#e8111c;fill-opacity:1;fill-rule:evenodd;stroke:#000;stroke-width:6.01200008;stroke-linecap:round;stroke-linejoin:round;marker:none;marker-start:none;marker-mid:none;marker-end:none;stroke-miterlimit:4;stroke-dashoffset:0;stroke-opacity:1;visibility:visible;display:inline;overflow:visible;enable-background:accumulate"/>
      <path style="fill:#e8111c;fill-opacity:1;fill-rule:evenodd;stroke:#000;stroke-width:6.01200008;stroke-linecap:round;stroke-linejoin:round;marker:none;marker-start:none;marker-mid:none;marker-end:none;stroke-miterlimit:4;stroke-dashoffset:0;stroke-opacity:1;visibility:visible;display:inline;overflow:visible;enable-background:accumulate" d="M-453.94924 903.01811c9.27198 1.3645 15.63778 9.92737 14.27316 19.1992l-6.58619 44.75307c-1.36456 9.27185-9.92731 15.63772-19.19925 14.27312-9.27183-1.36456-15.63749-9.92739-14.27307-19.19928l6.58624-44.75295c1.36451-9.27197 9.92734-15.63771 19.19911-14.27316z" id="path11021"/>
      <path id="path11023" d="M-406.06333 779.67204c8.51222 3.92091 12.20836 13.93014 8.28738 22.44219l-18.9252 41.08591c-3.92092 8.51208-13.93006 12.20832-22.44222 8.28733-8.51206-3.92092-12.20807-13.93008-8.28727-22.44224l18.92521-41.08578c3.92091-8.51221 13.93009-12.2083 22.4421-8.28741z" style="fill:#e8111c;fill-opacity:1;fill-rule:evenodd;stroke:#000;stroke-width:6.01200008;stroke-linecap:round;stroke-linejoin:round;marker:none;marker-start:none;marker-mid:none;marker-end:none;stroke-miterlimit:4;stroke-dashoffset:0;stroke-opacity:1;visibility:visible;display:inline;overflow:visible;enable-background:accumulate"/>
      <path style="fill:#e8111c;fill-opacity:1;fill-rule:evenodd;stroke:#000;stroke-width:6.01200008;stroke-linecap:round;stroke-linejoin:round;marker:none;marker-start:none;marker-mid:none;marker-end:none;stroke-miterlimit:4;stroke-dashoffset:0;stroke-opacity:1;visibility:visible;display:inline;overflow:visible;enable-background:accumulate" d="M-325.37319 674.80825c7.06316 6.15981 7.79033 16.80487 1.6305 23.86785l-29.73167 34.09168c-6.15978 7.06302-16.80478 7.79032-23.86786 1.63045-7.063-6.15977-7.79007-16.80473-1.63038-23.86786l29.73164-34.09156c6.15981-7.06315 16.80481-7.79028 23.86777-1.63056z" id="path11025"/>
      <path id="path11027" d="M-218.41297 596.91843c5.04214 7.8999 2.74145 18.31878-5.15841 23.36073l-38.13052 24.33677c-7.89983 5.04201-18.31868 2.74147-23.36073-5.15847-5.04199-7.89981-2.74124-18.31856 5.15854-23.3607l38.13045-24.33666c7.8999-5.04212 18.3187-2.74142 23.36067 5.15833z" style="fill:#e8111c;fill-opacity:1;fill-rule:evenodd;stroke:#000;stroke-width:6.01200008;stroke-linecap:round;stroke-linejoin:round;marker:none;marker-start:none;marker-mid:none;marker-end:none;stroke-miterlimit:4;stroke-dashoffset:0;stroke-opacity:1;visibility:visible;display:inline;overflow:visible;enable-background:accumulate"/>
      <path style="fill:#e8111c;fill-opacity:1;fill-rule:evenodd;stroke:#000;stroke-width:6.01200008;stroke-linecap:round;stroke-linejoin:round;marker:none;marker-start:none;marker-mid:none;marker-end:none;stroke-miterlimit:4;stroke-dashoffset:0;stroke-opacity:1;visibility:visible;display:inline;overflow:visible;enable-background:accumulate" d="M-93.844122 552.30997c2.61281 9.00027-2.52943 18.34926-11.529608 20.9619l-43.44162 12.6111c-9.00017 2.61271-18.34917-2.52938-20.96188-11.52966-2.61269-9.00014 2.52957-18.34899 11.52972-20.96183l43.44153-12.61102c9.00026-2.61279 18.349169 2.52943 20.961858 11.52951z" id="path11029"/>
      <path id="path11031" d="M-284.64717 1376.3136c5.09497-7.8659 15.52901-10.0967 23.39482-5.0017l37.96654 24.5917c7.86581 5.0949 10.09667 15.5289 5.00171 23.3948-5.09485 7.8659-15.52887 10.0965-23.39477 5.0017l-37.96651-24.5918c-7.86584-5.0948-10.09664-15.5289-5.00179-23.3947z" style="fill:#e8111c;fill-opacity:1;fill-rule:evenodd;stroke:#000;stroke-width:6.01200008;stroke-linecap:round;stroke-linejoin:round;marker:none;marker-start:none;marker-mid:none;marker-end:none;stroke-miterlimit:4;stroke-dashoffset:0;stroke-opacity:1;visibility:visible;display:inline;overflow:visible;enable-background:accumulate"/>
      <path style="fill:#e8111c;fill-opacity:1;fill-rule:evenodd;stroke:#000;stroke-width:6.01200008;stroke-linecap:round;stroke-linejoin:round;marker:none;marker-start:none;marker-mid:none;marker-end:none;stroke-miterlimit:4;stroke-dashoffset:0;stroke-opacity:1;visibility:visible;display:inline;overflow:visible;enable-background:accumulate" d="M-169.39208 1441.3027c2.67305-8.9826 12.05629-14.062 21.03873-11.3889l43.35609 12.9019c8.982438 2.6731 14.061908 12.0562 11.388862 21.0388-2.672989 8.9824-12.056232 14.0617-21.038702 11.3888l-43.35609-12.902c-8.98244-2.673-14.06188-12.0562-11.38889-21.0386z" id="path11033"/>
      <path style="fill:#e8111c;fill-opacity:1;fill-rule:evenodd;stroke:#000;stroke-width:6.01200008;stroke-linecap:round;stroke-linejoin:round;marker:none;marker-start:none;marker-mid:none;marker-end:none;stroke-miterlimit:4;stroke-dashoffset:0;stroke-opacity:1;visibility:visible;display:inline;overflow:visible;enable-background:accumulate" d="M-376.93009 1281.4918c7.10428-6.1123 17.74421-5.3138 23.85642 1.7905l29.50253 34.2901c6.11224 7.1042 5.31381 17.7441-1.79046 23.8564-7.10417 6.1123-17.74402 5.3136-23.85637-1.7905l-29.50247-34.2902c-6.1123-7.1041-5.31378-17.7441 1.79035-23.8563z" id="path11035"/>
      <path style="fill:#e8111c;fill-opacity:1;fill-rule:evenodd;stroke:#000;stroke-width:6.01200008;stroke-linecap:round;stroke-linejoin:round;marker:none;marker-start:none;marker-mid:none;marker-end:none;stroke-miterlimit:4;stroke-dashoffset:0;stroke-opacity:1;visibility:visible;display:inline;overflow:visible;enable-background:accumulate" d="M38.519782 544.32611c.035662 9.3718-7.480322 16.94513-16.851979 16.98077l-45.234744.17211c-9.371658.03564-16.945056-7.48024-16.980717-16.85203-.035659-9.37159 7.480323-16.94492 16.851981-16.98066l45.234743-.17211c9.371656-.03564 16.945056 7.48033 16.980716 16.85192z" id="path11037"/>
      <path id="path11039" d="M439.08027 848.00878c-8.50903 3.92778-18.52123.23962-22.44884-8.26934l-18.95824-41.07066c-3.92768-8.50896-.23966-18.52113 8.26939-22.4488 8.50895-3.92778 18.521-.23952 22.4488 8.26934l18.95816 41.07067c3.92775 8.50896.23963 18.52113-8.26927 22.44879z" style="fill:#e8111c;fill-opacity:1;fill-rule:evenodd;stroke:#000;stroke-width:6.01200008;stroke-linecap:round;stroke-linejoin:round;marker:none;marker-start:none;marker-mid:none;marker-end:none;stroke-miterlimit:4;stroke-dashoffset:0;stroke-opacity:1;visibility:visible;display:inline;overflow:visible;enable-background:accumulate"/>
      <path style="fill:#e8111c;fill-opacity:1;fill-rule:evenodd;stroke:#000;stroke-width:6.01200008;stroke-linecap:round;stroke-linejoin:round;marker:none;marker-start:none;marker-mid:none;marker-end:none;stroke-miterlimit:4;stroke-dashoffset:0;stroke-opacity:1;visibility:visible;display:inline;overflow:visible;enable-background:accumulate" d="M466.43793 977.4648c-9.27087 1.37202-17.83881-4.98695-19.21068-14.25772l-6.62219-44.74776c-1.37193-9.27076 4.98691-17.83873 14.25778-19.21065 9.27074-1.37191 17.83853 4.98705 19.21061 14.25782l6.6221 44.74766c1.37201 9.27087-4.98694 17.83874-14.25762 19.21065z" id="path11041"/>
      <path id="path11043" d="M456.2238 1109.3852c-9.28195-1.2949-15.71184-9.8097-14.41685-19.0916l6.25011-44.8012c1.29493-9.2819 9.80966-15.7118 19.09159-14.4169 9.2818 1.295 15.71155 9.8098 14.41676 19.0917l-6.25017 44.8011c-1.29487 9.282-9.80969 15.7118-19.09144 14.4169z" style="fill:#e8111c;fill-opacity:1;fill-rule:evenodd;stroke:#000;stroke-width:6.01200008;stroke-linecap:round;stroke-linejoin:round;marker:none;marker-start:none;marker-mid:none;marker-end:none;stroke-miterlimit:4;stroke-dashoffset:0;stroke-opacity:1;visibility:visible;display:inline;overflow:visible;enable-background:accumulate"/>
      <path style="fill:#e8111c;fill-opacity:1;fill-rule:evenodd;stroke:#000;stroke-width:6.01200008;stroke-linecap:round;stroke-linejoin:round;marker:none;marker-start:none;marker-mid:none;marker-end:none;stroke-miterlimit:4;stroke-dashoffset:0;stroke-opacity:1;visibility:visible;display:inline;overflow:visible;enable-background:accumulate" d="M409.26501 1233.0872c-8.54141-3.8569-12.31257-13.8381-8.45558-22.3794l18.6163-41.2268c3.85692-8.5412 13.83803-12.3125 22.37938-8.4555 8.54125 3.8569 12.31227 13.838 8.45548 22.3794l-18.61632 41.2267c-3.85691 8.5413-13.83806 12.3124-22.37926 8.4556z" id="path11045"/>
      <path id="path11047" d="M329.36419 1338.5537c-7.10919-6.1067-7.91624-16.746-1.80959-23.8551l29.47495-34.3138c6.1066-7.109 16.74584-7.9163 23.85495-1.8095 7.10904 6.1065 7.91598 16.7458 1.80948 23.8549l-29.47493 34.3137c-6.10662 7.1093-16.74586 7.9163-23.85486 1.8098z" style="fill:#e8111c;fill-opacity:1;fill-rule:evenodd;stroke:#000;stroke-width:6.01200008;stroke-linecap:round;stroke-linejoin:round;marker:none;marker-start:none;marker-mid:none;marker-end:none;stroke-miterlimit:4;stroke-dashoffset:0;stroke-opacity:1;visibility:visible;display:inline;overflow:visible;enable-background:accumulate"/>
      <path style="fill:#e8111c;fill-opacity:1;fill-rule:evenodd;stroke:#000;stroke-width:6.01200008;stroke-linecap:round;stroke-linejoin:round;marker:none;marker-start:none;marker-mid:none;marker-end:none;stroke-miterlimit:4;stroke-dashoffset:0;stroke-opacity:1;visibility:visible;display:inline;overflow:visible;enable-background:accumulate" d="M222.99158 1417.244c-5.10129-7.8618-2.87886-18.2976 4.98293-23.3987l37.94679-24.6224c7.86176-5.1011 18.29759-2.8788 23.39878 4.983 5.10115 7.8618 2.87866 18.2975-4.98306 23.3988l-37.94671 24.6222c-7.86184 5.1013-18.29761 2.8789-23.39873-4.9829z" id="path11049"/>
      <path id="path11051" d="M98.761045 1462.7862c-2.680286-8.9804 2.391645-18.3678 11.371955-21.0478l43.34575-12.9369c8.9803-2.6802 18.36764 2.3917 21.04782 11.3721 2.68017 8.9803-2.39178 18.3674-11.37206 21.0477l-43.34566 12.9367c-8.9804 2.6803-18.36763-2.3916-21.047805-11.3718z" style="fill:#e8111c;fill-opacity:1;fill-rule:evenodd;stroke:#000;stroke-width:6.01200008;stroke-linecap:round;stroke-linejoin:round;marker:none;marker-start:none;marker-mid:none;marker-end:none;stroke-miterlimit:4;stroke-dashoffset:0;stroke-opacity:1;visibility:visible;display:inline;overflow:visible;enable-background:accumulate"/>
      <path style="fill:#e8111c;fill-opacity:1;fill-rule:evenodd;stroke:#000;stroke-width:6.01200008;stroke-linecap:round;stroke-linejoin:round;marker:none;marker-start:none;marker-mid:none;marker-end:none;stroke-miterlimit:4;stroke-dashoffset:0;stroke-opacity:1;visibility:visible;display:inline;overflow:visible;enable-background:accumulate" d="M283.37421 637.37369c-5.03578 7.90392-15.4528 10.21297-23.35663 5.17716l-38.15003-24.30606c-7.90383-5.03572-10.21294-15.45269-5.17716-23.3566 5.03567-7.90391 15.45266-10.21276 23.35657-5.17715l38.15001 24.30616c7.90386 5.03562 10.21291 15.45268 5.17724 23.35649z" id="path11053"/>
      <path id="path11055" d="M167.6346 573.25146c-2.60556 9.00241-11.95041 14.15209-20.95267 11.54649l-43.45169-12.57613c-9.002254-2.60561-14.152005-11.95032-11.546453-20.95273 2.605497-9.00221 11.950353-14.15179 20.952633-11.54638l43.45171 12.57623c9.00224 2.60551 14.15197 11.95032 11.54647 20.95252z" style="fill:#e8111c;fill-opacity:1;fill-rule:evenodd;stroke:#000;stroke-width:6.01200008;stroke-linecap:round;stroke-linejoin:round;marker:none;marker-start:none;marker-mid:none;marker-end:none;stroke-miterlimit:4;stroke-dashoffset:0;stroke-opacity:1;visibility:visible;display:inline;overflow:visible;enable-background:accumulate"/>
      <path id="path11057" d="M376.36622 731.5002c-7.05821 6.16545-17.70384 5.44683-23.86919-1.6114l-29.75906-34.0677c-6.1654-7.05813-5.44685-17.70372 1.61135-23.86917 7.05809-6.16544 17.70364-5.44662 23.86914 1.6114l29.759 34.06781c6.16545 7.05802 5.44681 17.70371-1.61124 23.86906z" style="fill:#e8111c;fill-opacity:1;fill-rule:evenodd;stroke:#000;stroke-width:6.01200008;stroke-linecap:round;stroke-linejoin:round;marker:none;marker-start:none;marker-mid:none;marker-end:none;stroke-miterlimit:4;stroke-dashoffset:0;stroke-opacity:1;visibility:visible;display:inline;overflow:visible;enable-background:accumulate"/>
      <path d="M-261.82493 707.25971c-51.02545 60.02994-80.34573 136.95012-80.34573 222.99304 0 191.09535 153.07635 346.17265 342.17066 346.17265s342.17066-155.0773 342.17066-346.17265c0-86.04292-31.01547-165.08234-79.75078-223.7786C494.33273 976.21861 347.97652 1347.3901.75005712 1351.4411-346.47641 1355.492-496.23295 968.61266-261.82493 707.25971z" style="fill:#e8111c;fill-opacity:1;stroke:none;stroke-width:3.59736133;stroke-linejoin:round;stroke-miterlimit:4;stroke-opacity:1" id="path11059"/>
      <path transform="matrix(1.0005 0 0 1.0005 0 4.791172)" style="opacity:1;fill:none;fill-opacity:1;stroke:none;stroke-width:8.0120019899999999;stroke-linejoin:round;stroke-miterlimit:4;stroke-dasharray:none;stroke-opacity:1" d="M0 1401c220 0 399-179 399-399 0-121-54-229-139-302 51 60 82 139 82 225 0 191-153 346-342 346s-342-155-342-346c0-86 31-165 82-225-85 73-139 181-139 302 0 220 179 399 399 399z" class="fil2" id="path11061"/>
    </g>
  </g>
</svg>
